<?xml version="1.0" standalone="no"?>
<!DOCTYPE svg PUBLIC "-//W3C//DTD SVG 20010904//EN"
 "http://www.w3.org/TR/2001/REC-SVG-20010904/DTD/svg10.dtd">
<svg version="1.0" xmlns="http://www.w3.org/2000/svg"
 width="300.000000pt" height="300.000000pt" viewBox="0 0 300.000000 300.000000"
 preserveAspectRatio="xMidYMid meet">
<metadata>
Created by potrace 1.10, written by Peter Selinger 2001-2011
</metadata>
<g transform="translate(0.000000,300.000000) scale(0.100000,-0.100000)"
fill="#25ccc2" stroke="none">
<path d="M1251 2043 c0 -98 0 -98 14 -54 23 73 76 111 158 111 22 0 27 -4 27
-24 0 -19 -7 -26 -32 -31 -89 -19 -146 -96 -133 -178 9 -52 63 -107 123 -125
l42 -13 0 -115 0 -116 -32 20 c-42 26 -97 97 -105 133 -3 16 -10 29 -15 29 -6
0 -8 -10 -4 -22 3 -13 6 -48 6 -79 0 -53 1 -56 35 -72 19 -9 54 -20 76 -23 38
-6 40 -9 34 -33 -3 -14 -17 -35 -30 -46 l-24 -20 104 0 c58 0 105 3 105 8 0 4
-7 7 -16 7 -12 0 -44 53 -44 74 0 2 15 7 33 11 55 12 107 52 129 101 39 90 -3
172 -110 210 l-52 19 0 102 c0 64 4 103 10 103 18 0 100 -82 106 -106 11 -44
24 -25 24 35 0 59 0 59 -37 74 -21 8 -53 18 -70 22 -26 5 -33 12 -33 31 0 20
5 24 33 24 86 0 139 -36 162 -111 14 -44 14 -44 14 54 1 94 0 97 -18 87 -26
-13 -436 -13 -462 0 -18 10 -19 7 -18 -87z m44 36 c-10 -15 -25 -10 -19 6 4 8
10 12 15 9 5 -3 7 -10 4 -15z m229 -21 c3 -16 4 -34 1 -38 -3 -5 -6 -52 -7
-105 -1 -79 2 -99 17 -115 10 -11 25 -20 34 -20 18 0 76 -33 99 -57 19 -19 28
-104 13 -129 -9 -17 -10 -17 -11 6 0 14 -6 35 -13 47 -29 51 -118 92 -130 59
-7 -18 -9 -167 -3 -243 l4 -53 -34 0 c-33 0 -47 21 -24 35 7 4 6 13 -1 27 -8
14 -8 23 0 31 7 7 11 52 11 112 0 92 -2 103 -22 122 -13 11 -34 24 -48 28 -53
16 -88 52 -96 101 -4 26 -2 54 4 67 10 21 11 20 11 -9 1 -23 10 -40 35 -62 43
-38 69 -46 96 -32 20 11 21 19 19 129 -2 64 1 122 4 129 12 19 34 3 41 -30z
m196 26 c0 -8 -4 -12 -10 -9 -5 3 -10 10 -10 16 0 5 5 9 10 9 6 0 10 -7 10
-16z m-265 -149 c0 -63 -4 -95 -11 -95 -6 0 -26 10 -45 23 -65 43 -64 117 1
149 19 10 40 18 45 18 6 0 10 -38 10 -95z m191 48 c-7 -7 -26 7 -26 19 0 6 6
6 15 -2 9 -7 13 -15 11 -17z m-16 -328 c20 -24 17 -80 -5 -106 -18 -19 -66
-49 -80 -49 -3 0 -5 47 -5 105 l0 105 38 -19 c21 -11 45 -27 52 -36z m-272
-131 c-10 -9 -41 24 -33 35 5 9 11 7 22 -9 8 -12 13 -23 11 -26z"/>
</g>
</svg>
